# Blender v2.80 (sub 75) OBJ File: 'pawn.blend'
# www.blender.org
mtllib pawn.mtl
o Curve
v 0.000555 0.000000 -0.040906
v -0.000935 0.000000 -0.040812
v -0.002364 0.000000 -0.040539
v -0.003718 0.000000 -0.040097
v -0.004984 0.000000 -0.039501
v -0.006151 0.000000 -0.038762
v -0.007203 0.000000 -0.037891
v -0.008130 0.000000 -0.036903
v -0.008917 0.000000 -0.035808
v -0.009552 0.000000 -0.034619
v -0.010022 0.000000 -0.033348
v -0.010313 0.000000 -0.032008
v -0.010413 0.000000 -0.030610
v -0.010396 0.000000 -0.030056
v -0.010348 0.000000 -0.029505
v -0.010270 0.000000 -0.028960
v -0.010162 0.000000 -0.028421
v -0.010024 0.000000 -0.027889
v -0.009857 0.000000 -0.027367
v -0.009662 0.000000 -0.026854
v -0.009438 0.000000 -0.026353
v -0.009187 0.000000 -0.025864
v -0.008908 0.000000 -0.025389
v -0.008603 0.000000 -0.024929
v -0.008271 0.000000 -0.024484
v -0.009574 0.000000 -0.023712
v -0.010800 0.000000 -0.022842
v -0.011940 0.000000 -0.021879
v -0.012989 0.000000 -0.020830
v -0.013939 0.000000 -0.019700
v -0.014784 0.000000 -0.018495
v -0.015518 0.000000 -0.017221
v -0.016133 0.000000 -0.015884
v -0.016623 0.000000 -0.014489
v -0.016982 0.000000 -0.013042
v -0.017202 0.000000 -0.011550
v -0.017277 0.000000 -0.010017
v -0.017223 0.000000 -0.008723
v -0.017067 0.000000 -0.007457
v -0.016810 0.000000 -0.006222
v -0.016458 0.000000 -0.005021
v -0.016014 0.000000 -0.003857
v -0.015482 0.000000 -0.002736
v -0.014866 0.000000 -0.001659
v -0.014170 0.000000 -0.000630
v -0.013397 0.000000 0.000347
v -0.012552 0.000000 0.001268
v -0.011639 0.000000 0.002131
v -0.010661 0.000000 0.002931
v -0.012794 0.000000 0.003796
v -0.015032 0.000000 0.005029
v -0.017321 0.000000 0.006630
v -0.019603 0.000000 0.008600
v -0.021825 0.000000 0.010938
v -0.023931 0.000000 0.013645
v -0.025864 0.000000 0.016720
v -0.027571 0.000000 0.020162
v -0.028995 0.000000 0.023973
v -0.030080 0.000000 0.028152
v -0.030772 0.000000 0.032698
v -0.031015 0.000000 0.037613
v -0.029773 0.000000 0.037613
v -0.026338 0.000000 0.037613
v -0.021149 0.000000 0.037613
v -0.014645 0.000000 0.037613
v -0.007264 0.000000 0.037613
v 0.000556 0.000000 0.037613
v 0.008376 0.000000 0.037613
v 0.015757 0.000000 0.037613
v 0.022261 0.000000 0.037613
v 0.027450 0.000000 0.037613
v 0.030885 0.000000 0.037613
v 0.032127 0.000000 0.037613
v 0.031884 0.000000 0.032699
v 0.031192 0.000000 0.028154
v 0.030107 0.000000 0.023976
v 0.028683 0.000000 0.020167
v 0.026977 0.000000 0.016725
v 0.025044 0.000000 0.013652
v 0.022940 0.000000 0.010946
v 0.020719 0.000000 0.008608
v 0.018437 0.000000 0.006638
v 0.016151 0.000000 0.005035
v 0.013915 0.000000 0.003801
v 0.011784 0.000000 0.002934
v 0.012762 0.000000 0.002135
v 0.013676 0.000000 0.001274
v 0.014521 0.000000 0.000353
v 0.015293 0.000000 -0.000624
v 0.015990 0.000000 -0.001652
v 0.016606 0.000000 -0.002730
v 0.017138 0.000000 -0.003852
v 0.017582 0.000000 -0.005016
v 0.017934 0.000000 -0.006218
v 0.018190 0.000000 -0.007454
v 0.018347 0.000000 -0.008721
v 0.018400 0.000000 -0.010015
v 0.018325 0.000000 -0.011548
v 0.018105 0.000000 -0.013042
v 0.017746 0.000000 -0.014489
v 0.017255 0.000000 -0.015884
v 0.016639 0.000000 -0.017221
v 0.015905 0.000000 -0.018495
v 0.015059 0.000000 -0.019700
v 0.014108 0.000000 -0.020830
v 0.013060 0.000000 -0.021878
v 0.011920 0.000000 -0.022840
v 0.010696 0.000000 -0.023710
v 0.009394 0.000000 -0.024481
v 0.009726 0.000000 -0.024926
v 0.010032 0.000000 -0.025386
v 0.010311 0.000000 -0.025861
v 0.010562 0.000000 -0.026350
v 0.010785 0.000000 -0.026852
v 0.010981 0.000000 -0.027364
v 0.011147 0.000000 -0.027887
v 0.011285 0.000000 -0.028418
v 0.011393 0.000000 -0.028957
v 0.011471 0.000000 -0.029502
v 0.011519 0.000000 -0.030053
v 0.011536 0.000000 -0.030607
v 0.011436 0.000000 -0.032005
v 0.011144 0.000000 -0.033346
v 0.010674 0.000000 -0.034617
v 0.010038 0.000000 -0.035807
v 0.009249 0.000000 -0.036902
v 0.008321 0.000000 -0.037891
v 0.007266 0.000000 -0.038761
v 0.006099 0.000000 -0.039501
v 0.004830 0.000000 -0.040097
v 0.003475 0.000000 -0.040539
v 0.002045 0.000000 -0.040812
v 0.000555 0.020000 -0.040906
v -0.000935 0.020000 -0.040812
v -0.002364 0.020000 -0.040539
v -0.003718 0.020000 -0.040097
v -0.004984 0.020000 -0.039501
v -0.006151 0.020000 -0.038762
v -0.007203 0.020000 -0.037891
v -0.008130 0.020000 -0.036903
v -0.008917 0.020000 -0.035808
v -0.009552 0.020000 -0.034619
v -0.010022 0.020000 -0.033348
v -0.010313 0.020000 -0.032008
v -0.010413 0.020000 -0.030610
v -0.010396 0.020000 -0.030056
v -0.010348 0.020000 -0.029505
v -0.010270 0.020000 -0.028960
v -0.010162 0.020000 -0.028421
v -0.010024 0.020000 -0.027889
v -0.009857 0.020000 -0.027367
v -0.009662 0.020000 -0.026854
v -0.009438 0.020000 -0.026353
v -0.009187 0.020000 -0.025864
v -0.008908 0.020000 -0.025389
v -0.008603 0.020000 -0.024929
v -0.008271 0.020000 -0.024484
v -0.009574 0.020000 -0.023712
v -0.010800 0.020000 -0.022842
v -0.011940 0.020000 -0.021879
v -0.012989 0.020000 -0.020830
v -0.013939 0.020000 -0.019700
v -0.014784 0.020000 -0.018495
v -0.015518 0.020000 -0.017221
v -0.016133 0.020000 -0.015884
v -0.016623 0.020000 -0.014489
v -0.016982 0.020000 -0.013042
v -0.017202 0.020000 -0.011550
v -0.017277 0.020000 -0.010017
v -0.017223 0.020000 -0.008723
v -0.017067 0.020000 -0.007457
v -0.016810 0.020000 -0.006222
v -0.016458 0.020000 -0.005021
v -0.016014 0.020000 -0.003857
v -0.015482 0.020000 -0.002736
v -0.014866 0.020000 -0.001659
v -0.014170 0.020000 -0.000630
v -0.013397 0.020000 0.000347
v -0.012552 0.020000 0.001268
v -0.011639 0.020000 0.002131
v -0.010661 0.020000 0.002931
v -0.012794 0.020000 0.003796
v -0.015032 0.020000 0.005029
v -0.017321 0.020000 0.006630
v -0.019603 0.020000 0.008600
v -0.021825 0.020000 0.010938
v -0.023931 0.020000 0.013645
v -0.025864 0.020000 0.016720
v -0.027571 0.020000 0.020162
v -0.028995 0.020000 0.023973
v -0.030080 0.020000 0.028152
v -0.030772 0.020000 0.032698
v -0.031015 0.020000 0.037613
v -0.029773 0.020000 0.037613
v -0.026338 0.020000 0.037613
v -0.021149 0.020000 0.037613
v -0.014645 0.020000 0.037613
v -0.007264 0.020000 0.037613
v 0.000556 0.020000 0.037613
v 0.008376 0.020000 0.037613
v 0.015757 0.020000 0.037613
v 0.022261 0.020000 0.037613
v 0.027450 0.020000 0.037613
v 0.030885 0.020000 0.037613
v 0.032127 0.020000 0.037613
v 0.031884 0.020000 0.032699
v 0.031192 0.020000 0.028154
v 0.030107 0.020000 0.023976
v 0.028683 0.020000 0.020167
v 0.026977 0.020000 0.016725
v 0.025044 0.020000 0.013652
v 0.022940 0.020000 0.010946
v 0.020719 0.020000 0.008608
v 0.018437 0.020000 0.006638
v 0.016151 0.020000 0.005035
v 0.013915 0.020000 0.003801
v 0.011784 0.020000 0.002934
v 0.012762 0.020000 0.002135
v 0.013676 0.020000 0.001274
v 0.014521 0.020000 0.000353
v 0.015293 0.020000 -0.000624
v 0.015990 0.020000 -0.001652
v 0.016606 0.020000 -0.002730
v 0.017138 0.020000 -0.003852
v 0.017582 0.020000 -0.005016
v 0.017934 0.020000 -0.006218
v 0.018190 0.020000 -0.007454
v 0.018347 0.020000 -0.008721
v 0.018400 0.020000 -0.010015
v 0.018325 0.020000 -0.011548
v 0.018105 0.020000 -0.013042
v 0.017746 0.020000 -0.014489
v 0.017255 0.020000 -0.015884
v 0.016639 0.020000 -0.017221
v 0.015905 0.020000 -0.018495
v 0.015059 0.020000 -0.019700
v 0.014108 0.020000 -0.020830
v 0.013060 0.020000 -0.021878
v 0.011920 0.020000 -0.022840
v 0.010696 0.020000 -0.023710
v 0.009394 0.020000 -0.024481
v 0.009726 0.020000 -0.024926
v 0.010032 0.020000 -0.025386
v 0.010311 0.020000 -0.025861
v 0.010562 0.020000 -0.026350
v 0.010785 0.020000 -0.026852
v 0.010981 0.020000 -0.027364
v 0.011147 0.020000 -0.027887
v 0.011285 0.020000 -0.028418
v 0.011393 0.020000 -0.028957
v 0.011471 0.020000 -0.029502
v 0.011519 0.020000 -0.030053
v 0.011536 0.020000 -0.030607
v 0.011436 0.020000 -0.032005
v 0.011144 0.020000 -0.033346
v 0.010674 0.020000 -0.034617
v 0.010038 0.020000 -0.035807
v 0.009249 0.020000 -0.036902
v 0.008321 0.020000 -0.037891
v 0.007266 0.020000 -0.038761
v 0.006099 0.020000 -0.039501
v 0.004830 0.020000 -0.040097
v 0.003475 0.020000 -0.040539
v 0.002045 0.020000 -0.040812
vn 0.0000 -1.0000 0.0000
vn 0.0000 0.0000 1.0000
vn 0.0000 1.0000 0.0000
vn 0.0000 0.0000 -1.0000
vn 0.6325 0.0000 0.7745
vn -0.9988 0.0000 -0.0487
vn -0.3756 0.0000 -0.9268
vn 0.9378 0.0000 -0.3471
vn 0.8331 0.0000 0.5531
vn -0.9772 0.0000 -0.2123
vn 0.9988 0.0000 -0.0488
vn -0.8009 0.0000 0.5987
vn 0.3769 0.0000 -0.9263
vn -0.9992 0.0000 0.0410
vn -0.4825 0.0000 -0.8759
vn 0.9771 0.0000 -0.2127
vn 0.8009 0.0000 0.5987
vn -0.9975 0.0000 -0.0713
vn 0.9992 0.0000 0.0410
vn -0.5095 0.0000 -0.8604
vn 0.4833 0.0000 -0.8754
vn -0.9924 0.0000 0.1228
vn -0.5734 0.0000 -0.8193
vn 0.9974 0.0000 -0.0715
vn 0.5097 0.0000 -0.8603
vn -0.9995 0.0000 0.0308
vn 0.9924 0.0000 0.1227
vn -0.5790 0.0000 -0.8153
vn 0.5739 0.0000 -0.8189
vn -0.9791 0.0000 0.2032
vn -0.6533 0.0000 -0.7571
vn 0.9995 0.0000 0.0308
vn 0.5791 0.0000 -0.8153
vn -0.9962 0.0000 0.0866
vn 0.9792 0.0000 0.2031
vn -0.0629 0.0000 -0.9980
vn -0.6450 0.0000 -0.7641
vn 0.6536 0.0000 -0.7568
vn -0.9596 0.0000 0.2813
vn -0.7249 0.0000 -0.6888
vn 0.0629 0.0000 -0.9980
vn 0.9962 0.0000 0.0866
vn -0.1882 0.0000 -0.9821
vn 0.6450 0.0000 -0.7642
vn -0.9899 0.0000 0.1419
vn 0.9597 0.0000 0.2812
vn -0.7073 0.0000 -0.7069
vn 0.7250 0.0000 -0.6887
vn -0.9342 0.0000 0.3566
vn -0.7893 0.0000 -0.6140
vn 0.1880 0.0000 -0.9822
vn 0.9899 0.0000 0.1419
vn -0.3098 0.0000 -0.9508
vn 0.7072 0.0000 -0.7070
vn -0.9805 0.0000 0.1966
vn 0.9343 0.0000 0.3565
vn -0.7653 0.0000 -0.6437
vn 0.7893 0.0000 -0.6140
vn -0.9035 0.0000 0.4285
vn -0.8465 0.0000 -0.5324
vn 0.3095 0.0000 -0.9509
vn 0.9805 0.0000 0.1966
vn -0.4260 0.0000 -0.9047
vn 0.7651 0.0000 -0.6439
vn -0.9681 0.0000 0.2507
vn 0.9036 0.0000 0.4283
vn 0.8465 0.0000 -0.5324
vn -0.8680 0.0000 0.4966
vn 0.8184 0.0000 -0.5746
vn -0.8960 0.0000 -0.4441
vn 0.4256 0.0000 -0.9049
vn -0.8186 0.0000 -0.5743
vn 0.9681 0.0000 0.2507
vn -0.5355 0.0000 -0.8445
vn -0.9527 0.0000 0.3038
vn 0.8681 0.0000 0.4964
vn 0.8960 0.0000 -0.4441
vn -0.8281 0.0000 0.5606
vn 0.8664 0.0000 -0.4993
vn -0.9368 0.0000 -0.3500
vn 0.5350 0.0000 -0.8448
vn -0.8666 0.0000 -0.4990
vn 0.9527 0.0000 0.3038
vn -0.6371 0.0000 -0.7708
vn -0.9345 0.0000 0.3561
vn 0.8282 0.0000 0.5605
vn 0.9367 0.0000 -0.3500
vn -0.7843 0.0000 0.6203
vn 0.9083 0.0000 -0.4183
vn -0.9679 0.0000 -0.2515
vn 0.6366 0.0000 -0.7712
vn -0.9085 0.0000 -0.4179
vn 0.9345 0.0000 0.3561
vn -0.7297 0.0000 -0.6838
vn -0.9133 0.0000 0.4072
vn 0.7843 0.0000 0.6204
vn 0.9679 0.0000 -0.2515
vn -0.7371 0.0000 0.6758
vn 0.9433 0.0000 -0.3319
vn -0.9886 0.0000 -0.1505
vn 0.7292 0.0000 -0.6843
vn -0.9435 0.0000 -0.3315
vn 0.9133 0.0000 0.4072
vn -0.8120 0.0000 -0.5837
vn -0.8894 0.0000 0.4572
vn 0.7368 0.0000 0.6761
vn -0.9707 0.0000 -0.2405
vn 0.9886 0.0000 -0.1505
vn -0.6867 0.0000 0.7270
vn -0.9988 0.0000 -0.0494
vn 0.8115 0.0000 -0.5843
vn 0.8894 0.0000 0.4572
vn -0.8821 0.0000 -0.4710
vn 0.9706 0.0000 -0.2408
vn -0.8626 0.0000 0.5059
vn 0.6862 0.0000 0.7274
vn -0.9893 0.0000 -0.1458
vn 0.9988 0.0000 -0.0494
vn -0.6334 0.0000 0.7738
vn 0.8818 0.0000 -0.4716
vn 0.8626 0.0000 0.5059
vn -0.9380 0.0000 -0.3466
vn 0.9893 0.0000 -0.1460
vn -0.8331 0.0000 0.5531
usemtl SVGMat
s off
f 2//1 1//1 132//1
f 3//1 2//1 132//1
f 3//1 132//1 131//1
f 4//1 3//1 131//1
f 4//1 131//1 130//1
f 5//1 4//1 130//1
f 5//1 130//1 129//1
f 6//1 5//1 129//1
f 6//1 129//1 128//1
f 7//1 6//1 128//1
f 7//1 128//1 127//1
f 8//1 7//1 127//1
f 8//1 127//1 126//1
f 9//1 8//1 126//1
f 9//1 126//1 125//1
f 10//1 9//1 125//1
f 10//1 125//1 124//1
f 11//1 10//1 124//1
f 11//1 124//1 123//1
f 12//1 11//1 123//1
f 12//1 123//1 122//1
f 13//1 12//1 122//1
f 13//1 122//1 121//1
f 14//1 13//1 121//1
f 14//1 121//1 120//1
f 15//1 14//1 120//1
f 15//1 120//1 119//1
f 16//1 15//1 119//1
f 16//1 119//1 118//1
f 17//1 16//1 118//1
f 17//1 118//1 117//1
f 18//1 17//1 117//1
f 18//1 117//1 116//1
f 19//1 18//1 116//1
f 19//1 116//1 115//1
f 20//1 19//1 115//1
f 20//1 115//1 114//1
f 21//1 20//1 114//1
f 21//1 114//1 113//1
f 22//1 21//1 113//1
f 22//1 113//1 112//1
f 23//1 22//1 112//1
f 23//1 112//1 111//1
f 24//1 23//1 111//1
f 24//1 111//1 110//1
f 25//1 24//1 110//1
f 25//1 110//1 109//1
f 26//1 25//1 109//1
f 26//1 109//1 108//1
f 27//1 26//1 108//1
f 27//1 108//1 107//1
f 28//1 27//1 107//1
f 28//1 107//1 106//1
f 29//1 28//1 106//1
f 29//1 106//1 105//1
f 30//1 29//1 105//1
f 30//1 105//1 104//1
f 30//1 104//1 103//1
f 31//1 30//1 103//1
f 31//1 103//1 102//1
f 32//1 31//1 102//1
f 32//1 102//1 101//1
f 33//1 32//1 101//1
f 33//1 101//1 100//1
f 34//1 33//1 100//1
f 35//1 34//1 100//1
f 35//1 100//1 99//1
f 36//1 35//1 99//1
f 36//1 99//1 98//1
f 37//1 36//1 98//1
f 37//1 98//1 97//1
f 38//1 37//1 97//1
f 38//1 97//1 96//1
f 39//1 38//1 96//1
f 39//1 96//1 95//1
f 40//1 39//1 95//1
f 40//1 95//1 94//1
f 41//1 40//1 94//1
f 41//1 94//1 93//1
f 42//1 41//1 93//1
f 42//1 93//1 92//1
f 43//1 42//1 92//1
f 43//1 92//1 91//1
f 44//1 43//1 91//1
f 44//1 91//1 90//1
f 45//1 44//1 90//1
f 45//1 90//1 89//1
f 46//1 45//1 89//1
f 46//1 89//1 88//1
f 47//1 46//1 88//1
f 47//1 88//1 87//1
f 48//1 47//1 87//1
f 48//1 87//1 86//1
f 49//1 48//1 86//1
f 49//1 86//1 85//1
f 50//1 49//1 85//1
f 50//1 85//1 84//1
f 51//1 50//1 84//1
f 51//1 84//1 83//1
f 52//1 51//1 83//1
f 52//1 83//1 82//1
f 53//1 52//1 82//1
f 53//1 82//1 81//1
f 54//1 53//1 81//1
f 54//1 81//1 80//1
f 55//1 54//1 80//1
f 55//1 80//1 79//1
f 56//1 55//1 79//1
f 56//1 79//1 78//1
f 57//1 56//1 78//1
f 57//1 78//1 77//1
f 58//1 57//1 77//1
f 58//1 77//1 76//1
f 59//1 58//1 76//1
f 59//1 76//1 75//1
f 60//1 59//1 75//1
f 60//1 75//1 74//1
f 61//1 60//1 74//1
f 61//1 74//1 73//1
f 62//2 61//2 73//2
f 63//2 62//2 73//2
f 64//2 63//2 73//2
f 65//2 64//2 73//2
f 66//2 65//2 73//2
f 67//2 66//2 73//2
f 68//2 67//2 73//2
f 69//2 68//2 73//2
f 70//2 69//2 73//2
f 71//2 70//2 73//2
f 72//2 71//2 73//2
f 134//3 264//3 133//3
f 135//3 264//3 134//3
f 135//3 263//3 264//3
f 136//3 263//3 135//3
f 136//3 262//3 263//3
f 137//3 262//3 136//3
f 137//3 261//3 262//3
f 138//3 261//3 137//3
f 138//3 260//3 261//3
f 139//3 260//3 138//3
f 139//3 259//3 260//3
f 140//3 259//3 139//3
f 140//3 258//3 259//3
f 141//3 258//3 140//3
f 141//3 257//3 258//3
f 142//3 257//3 141//3
f 142//3 256//3 257//3
f 143//3 256//3 142//3
f 143//3 255//3 256//3
f 144//3 255//3 143//3
f 144//3 254//3 255//3
f 145//3 254//3 144//3
f 145//3 253//3 254//3
f 146//3 253//3 145//3
f 146//3 252//3 253//3
f 147//3 252//3 146//3
f 147//3 251//3 252//3
f 148//3 251//3 147//3
f 148//3 250//3 251//3
f 149//3 250//3 148//3
f 149//3 249//3 250//3
f 150//3 249//3 149//3
f 150//3 248//3 249//3
f 151//3 248//3 150//3
f 151//3 247//3 248//3
f 152//3 247//3 151//3
f 152//3 246//3 247//3
f 153//3 246//3 152//3
f 153//3 245//3 246//3
f 154//3 245//3 153//3
f 154//3 244//3 245//3
f 155//3 244//3 154//3
f 155//3 243//3 244//3
f 156//3 243//3 155//3
f 156//3 242//3 243//3
f 157//3 242//3 156//3
f 157//3 241//3 242//3
f 158//3 241//3 157//3
f 158//3 240//3 241//3
f 159//3 240//3 158//3
f 159//3 239//3 240//3
f 160//3 239//3 159//3
f 160//3 238//3 239//3
f 161//3 238//3 160//3
f 161//3 237//3 238//3
f 162//3 237//3 161//3
f 162//3 236//3 237//3
f 162//3 235//3 236//3
f 163//3 235//3 162//3
f 163//3 234//3 235//3
f 164//3 234//3 163//3
f 164//3 233//3 234//3
f 165//3 233//3 164//3
f 165//3 232//3 233//3
f 166//3 232//3 165//3
f 167//3 232//3 166//3
f 167//3 231//3 232//3
f 168//3 231//3 167//3
f 168//3 230//3 231//3
f 169//3 230//3 168//3
f 169//3 229//3 230//3
f 170//3 229//3 169//3
f 170//3 228//3 229//3
f 171//3 228//3 170//3
f 171//3 227//3 228//3
f 172//3 227//3 171//3
f 172//3 226//3 227//3
f 173//3 226//3 172//3
f 173//3 225//3 226//3
f 174//3 225//3 173//3
f 174//3 224//3 225//3
f 175//3 224//3 174//3
f 175//3 223//3 224//3
f 176//3 223//3 175//3
f 176//3 222//3 223//3
f 177//3 222//3 176//3
f 177//3 221//3 222//3
f 178//3 221//3 177//3
f 178//3 220//3 221//3
f 179//3 220//3 178//3
f 179//3 219//3 220//3
f 180//3 219//3 179//3
f 180//3 218//3 219//3
f 181//3 218//3 180//3
f 181//3 217//3 218//3
f 182//3 217//3 181//3
f 182//3 216//3 217//3
f 183//3 216//3 182//3
f 183//3 215//3 216//3
f 184//3 215//3 183//3
f 184//3 214//3 215//3
f 185//3 214//3 184//3
f 185//3 213//3 214//3
f 186//3 213//3 185//3
f 186//3 212//3 213//3
f 187//3 212//3 186//3
f 187//3 211//3 212//3
f 188//3 211//3 187//3
f 188//3 210//3 211//3
f 189//3 210//3 188//3
f 189//3 209//3 210//3
f 190//3 209//3 189//3
f 190//3 208//3 209//3
f 191//3 208//3 190//3
f 191//3 207//3 208//3
f 192//3 207//3 191//3
f 192//3 206//3 207//3
f 193//3 206//3 192//3
f 193//3 205//3 206//3
f 194//2 205//2 193//2
f 195//2 205//2 194//2
f 196//2 205//2 195//2
f 197//4 205//4 196//4
f 198//2 205//2 197//2
f 199//2 205//2 198//2
f 200//2 205//2 199//2
f 201//2 205//2 200//2
f 202//2 205//2 201//2
f 203//2 205//2 202//2
f 204//2 205//2 203//2
f 85//5 86//5 218//5 217//5
f 36//6 37//6 169//6 168//6
f 49//7 50//7 182//7 181//7
f 63//2 64//2 196//2 195//2
f 123//8 124//8 256//8 255//8
f 110//9 111//9 243//9 242//9
f 11//10 12//10 144//10 143//10
f 97//11 98//11 230//11 229//11
f 64//2 65//2 197//2 196//2
f 24//12 25//12 157//12 156//12
f 84//13 85//13 217//13 216//13
f 37//14 38//14 170//14 169//14
f 50//15 51//15 183//15 182//15
f 65//2 66//2 198//2 197//2
f 122//16 123//16 255//16 254//16
f 109//17 110//17 242//17 241//17
f 12//18 13//18 145//18 144//18
f 96//19 97//19 229//19 228//19
f 66//2 67//2 199//2 198//2
f 25//20 26//20 158//20 157//20
f 83//21 84//21 216//21 215//21
f 38//22 39//22 171//22 170//22
f 51//23 52//23 184//23 183//23
f 67//2 68//2 200//2 199//2
f 121//24 122//24 254//24 253//24
f 108//25 109//25 241//25 240//25
f 13//26 14//26 146//26 145//26
f 95//27 96//27 228//27 227//27
f 68//2 69//2 201//2 200//2
f 26//28 27//28 159//28 158//28
f 82//29 83//29 215//29 214//29
f 39//30 40//30 172//30 171//30
f 52//31 53//31 185//31 184//31
f 69//2 70//2 202//2 201//2
f 120//32 121//32 253//32 252//32
f 107//33 108//33 240//33 239//33
f 14//34 15//34 147//34 146//34
f 94//35 95//35 227//35 226//35
f 70//2 71//2 203//2 202//2
f 1//36 2//36 134//36 133//36
f 27//37 28//37 160//37 159//37
f 81//38 82//38 214//38 213//38
f 40//39 41//39 173//39 172//39
f 53//40 54//40 186//40 185//40
f 71//2 72//2 204//2 203//2
f 132//41 1//41 133//41 264//41
f 119//42 120//42 252//42 251//42
f 72//2 73//2 205//2 204//2
f 2//43 3//43 135//43 134//43
f 106//44 107//44 239//44 238//44
f 15//45 16//45 148//45 147//45
f 93//46 94//46 226//46 225//46
f 28//47 29//47 161//47 160//47
f 80//48 81//48 213//48 212//48
f 41//49 42//49 174//49 173//49
f 54//50 55//50 187//50 186//50
f 131//51 132//51 264//51 263//51
f 118//52 119//52 251//52 250//52
f 3//53 4//53 136//53 135//53
f 105//54 106//54 238//54 237//54
f 16//55 17//55 149//55 148//55
f 92//56 93//56 225//56 224//56
f 29//57 30//57 162//57 161//57
f 79//58 80//58 212//58 211//58
f 42//59 43//59 175//59 174//59
f 55//60 56//60 188//60 187//60
f 130//61 131//61 263//61 262//61
f 117//62 118//62 250//62 249//62
f 4//63 5//63 137//63 136//63
f 104//64 105//64 237//64 236//64
f 17//65 18//65 150//65 149//65
f 91//66 92//66 224//66 223//66
f 78//67 79//67 211//67 210//67
f 43//68 44//68 176//68 175//68
f 103//69 104//69 236//69 235//69
f 56//70 57//70 189//70 188//70
f 129//71 130//71 262//71 261//71
f 30//72 31//72 163//72 162//72
f 116//73 117//73 249//73 248//73
f 5//74 6//74 138//74 137//74
f 18//75 19//75 151//75 150//75
f 90//76 91//76 223//76 222//76
f 77//77 78//77 210//77 209//77
f 44//78 45//78 177//78 176//78
f 102//79 103//79 235//79 234//79
f 57//80 58//80 190//80 189//80
f 128//81 129//81 261//81 260//81
f 31//82 32//82 164//82 163//82
f 115//83 116//83 248//83 247//83
f 6//84 7//84 139//84 138//84
f 19//85 20//85 152//85 151//85
f 89//86 90//86 222//86 221//86
f 76//87 77//87 209//87 208//87
f 45//88 46//88 178//88 177//88
f 101//89 102//89 234//89 233//89
f 58//90 59//90 191//90 190//90
f 127//91 128//91 260//91 259//91
f 32//92 33//92 165//92 164//92
f 114//93 115//93 247//93 246//93
f 7//94 8//94 140//94 139//94
f 20//95 21//95 153//95 152//95
f 88//96 89//96 221//96 220//96
f 75//97 76//97 208//97 207//97
f 46//98 47//98 179//98 178//98
f 100//99 101//99 233//99 232//99
f 59//100 60//100 192//100 191//100
f 126//101 127//101 259//101 258//101
f 33//102 34//102 166//102 165//102
f 113//103 114//103 246//103 245//103
f 8//104 9//104 141//104 140//104
f 21//105 22//105 154//105 153//105
f 87//106 88//106 220//106 219//106
f 34//107 35//107 167//107 166//107
f 74//108 75//108 207//108 206//108
f 47//109 48//109 180//109 179//109
f 60//110 61//110 193//110 192//110
f 125//111 126//111 258//111 257//111
f 112//112 113//112 245//112 244//112
f 9//113 10//113 142//113 141//113
f 99//114 100//114 232//114 231//114
f 22//115 23//115 155//115 154//115
f 86//116 87//116 219//116 218//116
f 35//117 36//117 168//117 167//117
f 73//118 74//118 206//118 205//118
f 48//119 49//119 181//119 180//119
f 61//2 62//2 194//2 193//2
f 124//120 125//120 257//120 256//120
f 111//121 112//121 244//121 243//121
f 10//122 11//122 143//122 142//122
f 98//123 99//123 231//123 230//123
f 62//2 63//2 195//2 194//2
f 23//124 24//124 156//124 155//124
