# Blender v2.80 (sub 75) OBJ File: 'rook.blend'
# www.blender.org
mtllib rook.mtl
o Curve.002
v -0.033584 0.000000 -0.033509
v -0.033584 0.000000 -0.048292
v -0.021767 0.000000 -0.048292
v -0.021767 0.000000 -0.042367
v -0.006981 0.000000 -0.042367
v -0.006981 0.000000 -0.048292
v 0.007805 0.000000 -0.048292
v 0.007805 0.000000 -0.042367
v 0.022591 0.000000 -0.042367
v 0.022591 0.000000 -0.048292
v 0.034433 0.000000 -0.048292
v 0.034433 0.000000 -0.033509
v 0.025554 0.000000 -0.024638
v 0.025554 0.000000 0.011107
v -0.024725 0.000000 0.011107
v -0.024725 0.000000 -0.024638
v 0.034433 0.000000 -0.033509
v 0.025554 0.000000 -0.024638
v -0.024725 0.000000 -0.024638
v -0.033584 0.000000 -0.033509
v -0.039511 0.000000 0.040413
v 0.040340 0.000000 0.040413
v 0.040340 0.000000 0.031542
v -0.039511 0.000000 0.031542
v -0.030638 0.000000 0.031542
v -0.030638 0.000000 0.019710
v 0.031469 0.000000 0.019710
v 0.031469 0.000000 0.031539
v 0.025554 0.000000 0.012323
v 0.029991 0.000000 0.019710
v -0.029159 0.000000 0.019710
v -0.024722 0.000000 0.012318
v -0.033584 0.020000 -0.033509
v -0.033584 0.020000 -0.048292
v -0.021767 0.020000 -0.048292
v -0.021767 0.020000 -0.042367
v -0.006981 0.020000 -0.042367
v -0.006981 0.020000 -0.048292
v 0.007805 0.020000 -0.048292
v 0.007805 0.020000 -0.042367
v 0.022591 0.020000 -0.042367
v 0.022591 0.020000 -0.048292
v 0.034433 0.020000 -0.048292
v 0.034433 0.020000 -0.033509
v 0.025554 0.020000 -0.024638
v 0.025554 0.020000 0.011107
v -0.024725 0.020000 0.011107
v -0.024725 0.020000 -0.024638
v 0.034433 0.020000 -0.033509
v 0.025554 0.020000 -0.024638
v -0.024725 0.020000 -0.024638
v -0.033584 0.020000 -0.033509
v -0.039511 0.020000 0.040413
v 0.040340 0.020000 0.040413
v 0.040340 0.020000 0.031542
v -0.039511 0.020000 0.031542
v -0.030638 0.020000 0.031542
v -0.030638 0.020000 0.019710
v 0.031469 0.020000 0.019710
v 0.031469 0.020000 0.031539
v 0.025554 0.020000 0.012323
v 0.029991 0.020000 0.019710
v -0.029159 0.020000 0.019710
v -0.024722 0.020000 0.012318
vn 0.0000 -1.0000 0.0000
vn 0.0000 1.0000 0.0000
vn -0.8574 0.0000 -0.5146
vn 0.0000 0.0000 -1.0000
vn 1.0000 0.0000 0.0000
vn -1.0000 0.0000 0.0000
vn 0.0001 0.0000 -1.0000
vn 0.0000 0.0000 1.0000
vn 0.8573 0.0000 -0.5149
vn -0.7076 0.0000 0.7066
vn 0.7068 0.0000 0.7074
usemtl SVGMat
s off
f 31//1 32//1 29//1
f 31//1 29//1 30//1
f 25//1 26//1 27//1
f 25//1 27//1 28//1
f 21//1 24//1 23//1
f 21//1 23//1 22//1
f 1//1 2//1 3//1
f 1//1 3//1 4//1
f 5//1 6//1 7//1
f 5//1 7//1 8//1
f 9//1 10//1 11//1
f 9//1 11//1 12//1
f 1//1 4//1 5//1
f 1//1 5//1 8//1
f 1//1 8//1 9//1
f 1//1 9//1 12//1
f 19//1 20//1 17//1
f 19//1 17//1 18//1
f 15//1 16//1 13//1
f 15//1 13//1 14//1
f 63//2 61//2 64//2
f 63//2 62//2 61//2
f 57//2 59//2 58//2
f 57//2 60//2 59//2
f 53//2 55//2 56//2
f 53//2 54//2 55//2
f 33//2 35//2 34//2
f 33//2 36//2 35//2
f 37//2 39//2 38//2
f 37//2 40//2 39//2
f 41//2 43//2 42//2
f 41//2 44//2 43//2
f 33//2 37//2 36//2
f 33//2 40//2 37//2
f 33//2 41//2 40//2
f 33//2 44//2 41//2
f 51//2 49//2 52//2
f 51//2 50//2 49//2
f 47//2 45//2 48//2
f 47//2 46//2 45//2
f 31//3 64//3 32//3
f 10//4 43//4 11//4
f 23//5 54//5 22//5
f 15//6 48//6 16//6
f 1//6 34//6 2//6
f 32//7 61//7 29//7
f 11//5 44//5 12//5
f 16//4 45//4 13//4
f 30//8 63//8 31//8
f 2//4 35//4 3//4
f 14//8 47//8 15//8
f 29//9 62//9 30//9
f 4//4 37//4 5//4
f 13//5 46//5 14//5
f 25//6 58//6 26//6
f 3//5 36//5 4//5
f 5//6 38//6 6//6
f 26//4 59//4 27//4
f 8//4 41//4 9//4
f 28//8 57//8 25//8
f 12//8 33//8 1//8
f 6//4 39//4 7//4
f 27//5 60//5 28//5
f 19//10 52//10 20//10
f 21//6 56//6 24//6
f 7//5 40//5 8//5
f 20//4 49//4 17//4
f 9//6 42//6 10//6
f 24//4 55//4 23//4
f 18//8 51//8 19//8
f 22//8 53//8 21//8
f 17//11 50//11 18//11
f 31//3 63//3 64//3
f 10//4 42//4 43//4
f 23//5 55//5 54//5
f 15//6 47//6 48//6
f 1//6 33//6 34//6
f 32//7 64//7 61//7
f 11//5 43//5 44//5
f 16//4 48//4 45//4
f 30//8 62//8 63//8
f 2//4 34//4 35//4
f 14//8 46//8 47//8
f 29//9 61//9 62//9
f 4//4 36//4 37//4
f 13//5 45//5 46//5
f 25//6 57//6 58//6
f 3//5 35//5 36//5
f 5//6 37//6 38//6
f 26//4 58//4 59//4
f 8//4 40//4 41//4
f 28//8 60//8 57//8
f 12//8 44//8 33//8
f 6//4 38//4 39//4
f 27//5 59//5 60//5
f 19//10 51//10 52//10
f 21//6 53//6 56//6
f 7//5 39//5 40//5
f 20//4 52//4 49//4
f 9//6 41//6 42//6
f 24//4 56//4 55//4
f 18//8 50//8 51//8
f 22//8 54//8 53//8
f 17//11 49//11 50//11
o Curve.006
v 0.007902 0.000000 0.016758
v 0.075919 0.000000 0.016758
l 65 66
